<?xml version="1.0" encoding="UTF-8" standalone="no"?>
<svg
   xmlns:dc="http://purl.org/dc/elements/1.1/"
   xmlns:cc="http://creativecommons.org/ns#"
   xmlns:rdf="http://www.w3.org/1999/02/22-rdf-syntax-ns#"
   xmlns:svg="http://www.w3.org/2000/svg"
   xmlns="http://www.w3.org/2000/svg"
   xmlns:sodipodi="http://sodipodi.sourceforge.net/DTD/sodipodi-0.dtd"
   xmlns:inkscape="http://www.inkscape.org/namespaces/inkscape"
   viewBox="0 0 18 17.999969"
   id="svg2"
   version="1.1"
   inkscape:version="0.91 r13725"
   sodipodi:docname="checked-shield.svg"
   width="18"
   height="17.999969"
   inkscape:export-filename="P:\Work Files\GitHub\Gamify\images\checked-shield.png"
   inkscape:export-xdpi="80.000137"
   inkscape:export-ydpi="80.000137">
  <metadata
     id="metadata12">
    <rdf:RDF>
      <cc:Work
         rdf:about="">
        <dc:format>image/svg+xml</dc:format>
        <dc:type
           rdf:resource="http://purl.org/dc/dcmitype/StillImage" />
        <dc:title></dc:title>
      </cc:Work>
    </rdf:RDF>
  </metadata>
  <defs
     id="defs10" />
  <sodipodi:namedview
     pagecolor="#ffffff"
     bordercolor="#666666"
     borderopacity="1"
     objecttolerance="10"
     gridtolerance="10"
     guidetolerance="10"
     inkscape:pageopacity="0"
     inkscape:pageshadow="2"
     inkscape:window-width="1536"
     inkscape:window-height="803"
     id="namedview8"
     showgrid="false"
     fit-margin-top="0"
     fit-margin-left="0"
     fit-margin-bottom="0"
     fit-margin-right="0"
     inkscape:zoom="4"
     inkscape:cx="-80.5"
     inkscape:cy="8.4064885"
     inkscape:window-x="-8"
     inkscape:window-y="-8"
     inkscape:window-maximized="1"
     inkscape:current-layer="svg2" />
  <path
     d="m 0,0 0,0.4116077 c 0,3.9387259 0.4546662,7.8669089 1.7838348,11.0530693 1.3290271,3.186263 3.573558,5.653608 7.1041219,6.511383 l 0.0945,0.02391 0.0972,-0.01903 C 12.952155,17.251021 15.224882,14.773108 16.471225,11.554279 17.717568,8.3354736 18,4.3521593 18,0.4116849 l 0,-0.4115306 -0.460066,0.058371 c -5.693709,0.7164114 -11.38495,0.7181599 -17.078325,0 L 3.86e-5,1.543e-4 Z M 0.8136625,0.8159769 C 3.5443338,1.1418405 6.2754937,1.3043158 9.006744,1.3039301 l 0,7.0446706 7.546702,0 c -0.211782,1.0525863 -0.488339,2.0518413 -0.845947,2.9753173 -1.180836,3.049642 -3.184707,5.242693 -6.699418,5.938791 -3.47e-4,-1.16e-4 -8.62e-4,1.15e-4 -0.0013,0 l 0,-8.9140697 -7.3822345,0 C 1.0688506,6.0202928 0.8353911,3.4312041 0.8136754,0.8160412 Z"
     id="path6"
     style="fill:#b3b3b3;fill-rule:evenodd"
     inkscape:connector-curvature="0" />
  <path
     style="fill:#4d4d4d;stroke:none;stroke-width:0.2;stroke-miterlimit:4;stroke-dasharray:none;stroke-opacity:1"
     d="M 1.5502081,7.8589889 C 1.2233931,6.414942 0.9881465,4.4126263 0.9162752,2.4631919 l -0.060814,-1.6481022 0.2259895,0.0495 c 0.7160128,0.1565997 5.3938171,0.469799 7.0408264,0.4714062 l 0.8196539,8.1e-4 0,3.4785311 0,3.4785311 -3.6466764,0 -3.6466894,0 -0.098357,-0.4348148 z"
     id="path4140"
     inkscape:connector-curvature="0" />
  <path
     style="fill:#4d4d4d;stroke:none;stroke-width:0.2;stroke-miterlimit:4;stroke-dasharray:none;stroke-opacity:1"
     d="m 9.035646,12.803154 0,-4.4265248 3.748788,0 3.748788,0 -0.04847,0.1863511 c -0.02661,0.1024712 -0.134871,0.5217807 -0.240492,0.9317427 -0.586786,2.277419 -1.509361,4.069623 -2.765925,5.373078 -1.059298,1.098833 -2.308046,1.804766 -3.950928,2.233525 l -0.491797,0.128314 0,-4.426525 z"
     id="path4142"
     inkscape:connector-curvature="0" />
</svg>
